<mxfile host="app.diagrams.net" modified="2023-07-26T09:36:32.436Z" agent="Mozilla/5.0 (Macintosh; Intel Mac OS X 10_13_5) AppleWebKit/605.1.15 (KHTML, like Gecko) CriOS/115 Version/11.1.1 Safari/605.1.15" etag="4bThpqsM6jJ8Z6w47pIq" version="21.6.5" type="github">
  <diagram name="第 1 页" id="O4dvIuJmxKBdDeCWZXbc">
    <mxGraphModel dx="1508" dy="992" grid="0" gridSize="10" guides="1" tooltips="1" connect="1" arrows="1" fold="1" page="0" pageScale="1" pageWidth="827" pageHeight="1169" math="0" shadow="0">
      <root>
        <mxCell id="0" />
        <mxCell id="1" parent="0" />
        <mxCell id="HC-I7ZPv9jHFifgFexTk-1" value="" style="rounded=0;whiteSpace=wrap;html=1;fontSize=16;" vertex="1" parent="1">
          <mxGeometry x="-540" y="-7" width="120" height="60" as="geometry" />
        </mxCell>
      </root>
    </mxGraphModel>
  </diagram>
</mxfile>
